<svg width="493" height="120" viewBox="0 0 493 120" fill="none" xmlns="http://www.w3.org/2000/svg">
<g clip-path="url(#clip0_189_1889)">
<rect width="493" height="120" fill="white"/>
<path d="M23.424 92V71.552L1.248 28.64H11.52L27.648 62.912H28.128L44.16 28.64H54.432L32.256 71.456V92H23.424ZM69.0705 93.248C66.3825 93.248 63.9505 92.736 61.7745 91.712C59.5985 90.624 57.8705 89.056 56.5905 87.008C55.3105 84.896 54.6705 82.24 54.6705 79.04C54.6705 76.672 55.0865 74.592 55.9185 72.8C56.8145 71.008 58.1585 69.472 59.9505 68.192C61.8065 66.912 64.1745 65.856 67.0545 65.024C69.9345 64.192 73.4545 63.488 77.6145 62.912C79.9825 62.592 81.9025 62.272 83.3745 61.952C84.9105 61.632 86.0305 61.12 86.7345 60.416C87.4385 59.648 87.7905 58.528 87.7905 57.056C87.7905 54.624 86.9585 52.576 85.2945 50.912C83.6305 49.248 81.0065 48.416 77.4225 48.416C75.5665 48.416 73.6785 48.736 71.7585 49.376C69.8385 50.016 68.1425 51.104 66.6705 52.64C65.2625 54.112 64.3665 56.192 63.9825 58.88L55.9185 56.192C56.4305 53.888 57.2625 51.808 58.4145 49.952C59.6305 48.096 61.1665 46.528 63.0225 45.248C64.8785 43.904 67.0225 42.88 69.4545 42.176C71.9505 41.472 74.7025 41.12 77.7105 41.12C81.8705 41.12 85.3265 41.824 88.0785 43.232C90.8945 44.64 92.9745 46.816 94.3185 49.76C95.7265 52.64 96.4305 56.352 96.4305 60.896V71.936C96.4305 73.92 96.4625 76.096 96.5265 78.464C96.6545 80.768 96.8145 83.104 97.0065 85.472C97.1985 87.776 97.3905 89.952 97.5825 92H89.5185C89.3265 89.952 89.1345 87.904 88.9425 85.856C88.8145 83.808 88.7185 81.76 88.6545 79.712H87.4065C86.4465 82.08 85.1665 84.288 83.5665 86.336C81.9665 88.384 79.9505 90.048 77.5185 91.328C75.1505 92.608 72.3345 93.248 69.0705 93.248ZM71.6625 86.144C73.0705 86.144 74.4785 85.92 75.8865 85.472C77.3585 85.024 78.7985 84.288 80.2065 83.264C81.6785 82.24 83.0545 80.928 84.3345 79.328C85.6785 77.728 86.8625 75.808 87.8865 73.568V63.968L90.3825 64.448C89.3585 65.472 87.9825 66.24 86.2545 66.752C84.5905 67.264 82.7345 67.68 80.6865 68C78.6385 68.32 76.5905 68.672 74.5425 69.056C72.4945 69.376 70.6065 69.888 68.8785 70.592C67.2145 71.232 65.8705 72.16 64.8465 73.376C63.8225 74.592 63.3105 76.256 63.3105 78.368C63.3105 80.928 64.0785 82.88 65.6145 84.224C67.1505 85.504 69.1665 86.144 71.6625 86.144ZM111.084 92V61.184V42.368H118.956L118.092 58.112H119.724C120.62 54.208 121.804 51.008 123.276 48.512C124.812 46.016 126.732 44.16 129.036 42.944C131.34 41.728 134.028 41.12 137.1 41.12C142.604 41.12 146.764 43.104 149.58 47.072C152.46 50.976 153.9 56.832 153.9 64.64V92H145.068V65.408C145.068 59.776 144.172 55.616 142.38 52.928C140.652 50.24 138.092 48.896 134.7 48.896C131.628 48.896 129.004 49.856 126.828 51.776C124.716 53.696 123.052 56.224 121.836 59.36C120.62 62.496 119.948 65.888 119.82 69.536V92H111.084ZM168.368 92V42.368H177.104V92H168.368ZM172.784 33.728C170.736 33.728 169.2 33.312 168.176 32.48C167.152 31.648 166.64 30.4 166.64 28.736C166.64 27.072 167.152 25.824 168.176 24.992C169.2 24.16 170.704 23.744 172.688 23.744C174.736 23.744 176.272 24.16 177.296 24.992C178.32 25.824 178.832 27.072 178.832 28.736C178.832 30.336 178.32 31.584 177.296 32.48C176.272 33.312 174.768 33.728 172.784 33.728ZM210.704 93.248C207.248 93.248 204.176 92.864 201.488 92.096C198.8 91.392 196.56 90.368 194.768 89.024C192.976 87.616 191.6 85.952 190.64 84.032C189.68 82.112 189.168 80 189.104 77.696L196.496 75.776C196.368 77.888 196.88 79.744 198.032 81.344C199.248 82.88 200.944 84.064 203.12 84.896C205.36 85.728 208.048 86.144 211.184 86.144C214.96 86.144 217.872 85.504 219.92 84.224C222.032 82.944 223.088 81.184 223.088 78.944C223.088 77.152 222.512 75.776 221.36 74.816C220.208 73.792 218.608 72.992 216.56 72.416C214.576 71.776 212.208 71.2 209.456 70.688C207.152 70.176 204.848 69.6 202.544 68.96C200.24 68.32 198.128 67.488 196.208 66.464C194.352 65.376 192.848 63.968 191.696 62.24C190.544 60.512 189.968 58.368 189.968 55.808C189.968 52.8 190.768 50.208 192.368 48.032C193.968 45.856 196.24 44.16 199.184 42.944C202.128 41.728 205.648 41.12 209.744 41.12C213.84 41.12 217.328 41.76 220.208 43.04C223.088 44.256 225.36 45.984 227.024 48.224C228.688 50.464 229.616 53.088 229.808 56.096L222.224 58.016C222.16 55.904 221.584 54.112 220.496 52.64C219.472 51.168 218 50.08 216.08 49.376C214.16 48.608 211.92 48.224 209.359 48.224C205.968 48.224 203.28 48.864 201.296 50.144C199.312 51.424 198.32 53.184 198.32 55.424C198.32 57.088 198.896 58.432 200.048 59.456C201.264 60.48 202.896 61.28 204.944 61.856C206.992 62.432 209.264 63.008 211.76 63.584C214.32 64.096 216.752 64.672 219.056 65.312C221.424 65.952 223.536 66.784 225.392 67.808C227.248 68.832 228.72 70.208 229.808 71.936C230.896 73.6 231.44 75.744 231.44 78.368C231.44 81.632 230.576 84.384 228.848 86.624C227.12 88.8 224.688 90.464 221.552 91.616C218.48 92.704 214.864 93.248 210.704 93.248ZM309.795 63.104C309.411 63.36 308.611 63.68 307.395 64.064C306.243 64.384 304.259 64.704 301.443 65.024C300.611 65.088 299.427 65.152 297.891 65.216C296.355 65.28 294.691 65.344 292.899 65.408C291.171 65.472 289.571 65.504 288.099 65.504C286.691 65.44 285.699 65.344 285.123 65.216C285.123 65.216 284.963 65.376 284.643 65.696C284.387 66.016 284.259 66.432 284.259 66.944C283.811 67.712 283.267 68.864 282.627 70.4C281.987 71.872 281.283 73.504 280.515 75.296C279.811 77.088 279.139 78.88 278.499 80.672C277.859 82.4 277.315 83.936 276.867 85.28C276.483 86.56 276.291 87.456 276.291 87.968C275.715 89.504 275.363 90.816 275.235 91.904C275.107 92.992 274.883 93.632 274.563 93.824C274.371 94.784 273.763 95.264 272.739 95.264C271.779 95.264 271.043 94.976 270.531 94.4C269.123 93.696 268.163 92.8 267.651 91.712C267.139 90.56 267.107 89.28 267.555 87.872C267.747 87.04 268.067 85.824 268.515 84.224C269.027 82.56 269.571 80.736 270.147 78.752C270.787 76.768 271.427 74.848 272.067 72.992C272.771 71.072 273.443 69.504 274.083 68.288C274.787 67.072 275.235 65.984 275.427 65.024C275.619 64 275.875 63.072 276.195 62.24C276.131 61.536 276.131 61.088 276.195 60.896C276.259 60.64 276.515 60.224 276.963 59.648C277.283 59.392 277.667 58.944 278.115 58.304C278.627 57.6 279.203 56.544 279.843 55.136C280.035 54.496 280.323 53.632 280.707 52.544C281.155 51.392 281.571 50.24 281.955 49.088C282.339 47.872 282.691 46.848 283.011 46.016C283.331 45.184 283.491 44.736 283.491 44.672C283.619 44.416 283.811 43.936 284.067 43.232C284.323 42.464 284.515 41.856 284.643 41.408C284.899 40.512 285.091 39.776 285.219 39.2C285.411 38.624 285.379 38.336 285.123 38.336C284.611 38.464 283.587 38.56 282.051 38.624C281.283 38.752 280.707 38.848 280.323 38.912C280.003 38.912 279.715 38.944 279.459 39.008C278.819 39.072 278.243 39.008 277.731 38.816C277.219 38.624 276.963 38.24 276.963 37.664C277.091 36.64 277.443 35.584 278.019 34.496C278.659 33.408 279.459 32.832 280.419 32.768C280.867 32.64 281.347 32.544 281.859 32.48C282.435 32.352 283.203 32.16 284.163 31.904C285.379 31.648 286.435 31.584 287.331 31.712C288.291 31.776 288.963 31.872 289.347 32C289.667 31.808 289.923 31.616 290.115 31.424C290.371 31.168 290.531 30.912 290.595 30.656C290.915 29.504 291.491 28.64 292.323 28.064C293.155 27.424 294.019 27.104 294.915 27.104C295.875 27.04 296.643 27.296 297.219 27.872C297.795 28.384 297.955 29.248 297.699 30.464C297.763 30.656 297.827 30.816 297.891 30.944C298.019 31.072 298.499 31.072 299.331 30.944C300.227 30.752 301.763 30.432 303.939 29.984C305.091 29.856 306.531 29.728 308.259 29.6C310.051 29.472 311.459 29.568 312.483 29.888C313.571 29.696 314.531 29.632 315.363 29.696C316.259 29.696 316.867 29.568 317.187 29.312C318.531 29.568 319.491 29.76 320.067 29.888C320.707 29.952 321.219 30.144 321.603 30.464C321.859 30.72 321.955 30.976 321.891 31.232C321.827 31.424 321.795 31.52 321.795 31.52C321.539 31.392 321.507 31.392 321.699 31.52C321.891 31.584 322.147 31.744 322.467 32C322.915 32.192 323.139 32.608 323.139 33.248C323.203 33.824 323.171 34.432 323.043 35.072C322.979 35.648 322.915 36.032 322.851 36.224C322.787 36.8 322.467 37.152 321.891 37.28C321.315 37.344 319.875 37.344 317.571 37.28C314.819 36.896 312.259 36.768 309.891 36.896C307.587 36.96 304.675 37.248 301.155 37.76C299.747 37.824 298.531 38.016 297.507 38.336C296.547 38.592 296.067 38.72 296.067 38.72C295.811 38.72 295.363 39.168 294.723 40.064C294.083 40.896 293.475 42.144 292.899 43.808C292.643 44.256 292.195 45.184 291.555 46.592C290.979 48 290.371 49.536 289.731 51.2C289.091 52.8 288.515 54.24 288.003 55.52C287.491 56.736 287.171 57.408 287.043 57.536C287.939 57.792 289.315 57.92 291.171 57.92C293.091 57.92 295.203 57.856 297.507 57.728C299.811 57.536 301.987 57.344 304.035 57.152C304.995 56.96 305.987 56.8 307.011 56.672C308.035 56.544 308.739 56.512 309.123 56.576C309.891 56.64 310.467 57.152 310.851 58.112C311.235 59.008 311.363 59.968 311.235 60.992C311.107 61.952 310.627 62.656 309.795 63.104ZM318.847 91.328C318.015 91.328 317.343 91.168 316.831 90.848C316.383 90.528 315.807 90.08 315.103 89.504C313.887 88.224 312.895 86.848 312.127 85.376C311.423 83.904 311.167 82.624 311.359 81.536C311.551 81.024 311.615 80.544 311.551 80.096C311.551 79.584 311.551 79.328 311.551 79.328C311.231 79.008 311.135 78.816 311.263 78.752C311.391 78.624 311.519 78.432 311.647 78.176C312.031 78.176 312.159 77.824 312.031 77.12C311.903 76.608 312.095 75.52 312.607 73.856C313.183 72.128 313.951 70.496 314.911 68.96C315.295 68.32 315.871 67.488 316.639 66.464C317.407 65.376 318.239 64.32 319.135 63.296C320.095 62.208 320.959 61.344 321.727 60.704C323.327 59.36 324.799 58.272 326.143 57.44C327.551 56.608 328.959 56.032 330.367 55.712C331.775 55.392 333.215 55.232 334.687 55.232C336.223 55.232 337.471 55.744 338.431 56.768C339.903 57.408 340.927 58.272 341.503 59.36C342.143 60.448 342.559 61.856 342.751 63.584C342.943 65.504 342.751 67.872 342.175 70.688C341.599 73.44 340.031 76.64 337.471 80.288C335.871 82.592 334.303 84.384 332.767 85.664C331.231 86.944 329.535 88.128 327.679 89.216C326.335 90.112 324.895 90.656 323.359 90.848C321.823 91.04 320.319 91.2 318.847 91.328ZM328.639 79.616C330.047 78.4 331.039 77.056 331.615 75.584C332.255 74.112 332.927 72.384 333.631 70.4C333.887 70.016 334.047 69.376 334.111 68.48C334.239 67.584 334.271 66.72 334.207 65.888C334.143 64.992 333.919 64.48 333.535 64.352C332.959 63.904 332.383 63.808 331.807 64.064C331.231 64.256 330.495 64.672 329.599 65.312C327.679 66.912 325.887 68.768 324.223 70.88C322.623 72.928 321.503 75.456 320.863 78.464C320.671 80.064 320.831 81.28 321.343 82.112C321.919 82.88 322.815 83.104 324.031 82.784C325.311 82.4 326.847 81.344 328.639 79.616ZM370.428 92.576C369.98 92.832 369.372 92.736 368.604 92.288C367.9 91.84 367.196 91.168 366.492 90.272C366.044 89.504 365.692 88.736 365.436 87.968C365.244 87.136 365.148 85.92 365.148 84.32C365.212 83.04 365.212 82.176 365.148 81.728C365.148 81.216 364.86 81.184 364.284 81.632C363.772 82.016 362.716 82.976 361.116 84.512C359.516 86.112 357.98 87.488 356.508 88.64C355.1 89.728 353.948 90.24 353.052 90.176C352.604 90.176 351.996 89.888 351.228 89.312C350.46 88.736 349.724 88.032 349.02 87.2C348.316 86.304 347.804 85.472 347.484 84.704C347.1 83.168 347.068 81.184 347.388 78.752C347.772 76.32 348.38 73.792 349.212 71.168C350.044 68.48 350.972 65.984 351.996 63.68C353.084 61.312 354.14 59.424 355.164 58.016C356.252 56.544 357.18 55.84 357.948 55.904C359.036 56.032 359.964 56.576 360.732 57.536C361.564 58.432 362.204 59.424 362.652 60.512C362.908 60.96 363.004 61.344 362.94 61.664C362.94 61.984 362.684 62.368 362.172 62.816C361.596 63.584 360.892 64.704 360.06 66.176C359.292 67.584 358.492 69.12 357.66 70.784C356.892 72.448 356.188 74.048 355.548 75.584C354.972 77.056 354.556 78.272 354.3 79.232C354.044 80.192 354.044 80.672 354.3 80.672C355.196 80.672 356.028 80.448 356.796 80C357.564 79.488 358.524 78.688 359.676 77.6C361.02 76.256 362.204 74.912 363.228 73.568C364.252 72.16 365.308 70.56 366.396 68.768C367.228 67.488 368.092 66.08 368.988 64.544C369.948 63.008 370.556 61.92 370.812 61.28C371.708 59.616 372.38 58.368 372.828 57.536C373.276 56.704 373.82 56.192 374.46 56C374.78 56 375.228 56 375.804 56C376.38 56 376.668 56 376.668 56C377.052 56.064 377.5 56.352 378.012 56.864C378.524 57.12 379.036 57.472 379.548 57.92C380.124 58.368 380.412 58.752 380.412 59.072C380.156 59.712 379.74 60.672 379.164 61.952C378.652 63.168 378.268 64.064 378.012 64.64C376.796 67.392 375.612 70.112 374.46 72.8C373.372 75.424 372.572 78.112 372.06 80.864C371.932 81.76 371.9 82.816 371.964 84.032C372.092 85.184 372.284 86.016 372.54 86.528C372.732 86.912 372.956 87.36 373.212 87.872C373.532 88.32 373.884 88.704 374.268 89.024C374.844 89.408 374.812 89.888 374.172 90.464C373.596 91.04 372.86 91.552 371.964 92C371.132 92.384 370.62 92.576 370.428 92.576ZM388.295 90.272C387.527 90.464 386.663 90.24 385.703 89.6C384.743 88.96 383.879 88.16 383.111 87.2C382.343 86.24 381.863 85.376 381.671 84.608C381.415 83.264 381.479 81.632 381.863 79.712C382.311 77.728 383.047 75.648 384.071 73.472C385.095 71.232 386.375 69.056 387.911 66.944C389.447 64.768 391.175 62.816 393.095 61.088C395.015 59.36 397.095 58.016 399.335 57.056C400.295 56.544 400.967 56.224 401.351 56.096C401.735 55.904 402.119 55.904 402.503 56.096C402.887 56.224 403.559 56.544 404.519 57.056C405.415 57.312 406.311 57.632 407.207 58.016C408.167 58.336 408.999 58.976 409.703 59.936C410.215 60.896 410.599 61.856 410.855 62.816C411.111 63.776 411.335 64.864 411.527 66.08C412.039 67.68 412.231 68.736 412.103 69.248C411.975 69.696 411.783 70.048 411.527 70.304C411.015 70.944 410.887 71.264 411.143 71.264C411.143 71.264 411.111 71.392 411.047 71.648C411.047 71.84 410.919 72.16 410.663 72.608C410.215 74.016 409.863 75.36 409.607 76.64C409.415 77.856 409.447 78.944 409.703 79.904C410.215 81.312 410.887 82.144 411.719 82.4C412.615 82.656 413.767 82.08 415.175 80.672C415.879 80.16 416.679 79.84 417.575 79.712C418.471 79.52 418.919 79.68 418.919 80.192C418.919 80.192 419.015 80.288 419.207 80.48C419.399 80.608 419.623 80.672 419.879 80.672C420.199 80.672 420.327 80.992 420.263 81.632C420.199 82.208 420.071 82.88 419.879 83.648C419.687 84.416 419.431 85.056 419.111 85.568C418.151 86.528 417.671 87.168 417.671 87.488C417.671 87.488 417.543 87.616 417.287 87.872C417.095 88.064 416.743 88.384 416.231 88.832C415.079 89.536 413.607 89.888 411.815 89.888C410.087 89.888 408.743 89.536 407.783 88.832C406.823 88.128 405.863 87.264 404.903 86.24C404.007 85.216 403.431 84.256 403.175 83.36L402.695 82.4L399.911 84.224C399.207 84.928 398.695 85.472 398.375 85.856C398.055 86.176 397.767 86.464 397.511 86.72C397.319 86.976 397.095 87.2 396.839 87.392C396.647 87.584 396.423 87.68 396.167 87.68C395.911 87.68 395.687 87.68 395.495 87.68C395.303 87.68 395.207 87.68 395.207 87.68C395.207 87.936 394.759 88.288 393.863 88.736C392.967 89.12 391.975 89.472 390.887 89.792C389.799 90.112 388.935 90.272 388.295 90.272ZM390.311 82.208C390.695 82.208 391.271 81.984 392.039 81.536C392.871 81.024 393.767 80.416 394.727 79.712C395.687 79.008 396.551 78.304 397.319 77.6C398.151 76.896 398.759 76.32 399.143 75.872C399.399 75.616 399.687 75.2 400.007 74.624C400.391 74.048 400.807 73.536 401.255 73.088C402.727 71.424 403.655 70.112 404.039 69.152C404.423 68.128 404.263 67.04 403.559 65.888C403.303 65.184 402.983 64.8 402.599 64.736C402.215 64.672 401.415 64.896 400.199 65.408C399.431 65.856 398.599 66.592 397.703 67.616C396.807 68.64 395.879 69.792 394.919 71.072C394.023 72.352 393.191 73.664 392.423 75.008C391.655 76.352 391.015 77.568 390.503 78.656C390.055 79.744 389.831 80.608 389.831 81.248C389.831 81.504 389.895 81.728 390.023 81.92C390.215 82.112 390.311 82.208 390.311 82.208ZM449.154 93.824C448.322 94.016 447.49 93.792 446.658 93.152C445.89 92.576 445.346 91.936 445.026 91.232C444.642 90.208 444.386 89.248 444.258 88.352C444.194 87.392 444.13 86.304 444.066 85.088L443.97 81.824L440.034 85.376C437.858 87.424 435.81 88.896 433.89 89.792C432.034 90.624 430.338 91.04 428.802 91.04C428.098 90.912 427.234 90.464 426.21 89.696C425.25 88.864 424.354 87.968 423.522 87.008C422.754 85.984 422.21 85.152 421.89 84.512C421.506 83.616 421.378 82.368 421.506 80.768C421.698 79.168 422.082 77.408 422.658 75.488C423.298 73.568 424.066 71.68 424.962 69.824C425.922 67.968 427.01 66.368 428.226 65.024C430.338 61.824 432.962 59.84 436.098 59.072C439.234 58.24 442.018 58.496 444.45 59.84C445.602 60.416 446.434 60.64 446.946 60.512C447.458 60.384 447.778 59.968 447.906 59.264C448.162 58.24 448.45 57.28 448.77 56.384C449.09 55.488 449.538 54.144 450.114 52.352C451.714 47.488 453.09 43.68 454.242 40.928C455.458 38.176 456.546 35.776 457.506 33.728C458.21 32.256 458.914 31.232 459.618 30.656C460.322 30.08 460.93 29.824 461.442 29.888C462.146 29.888 463.01 30.144 464.034 30.656C465.122 31.168 465.826 31.872 466.146 32.768C466.402 33.344 466.498 33.952 466.434 34.592C466.434 35.232 466.242 35.904 465.858 36.608C465.026 38.144 464.034 40.192 462.882 42.752C461.794 45.248 460.674 48 459.522 51.008C458.434 54.016 457.41 56.992 456.45 59.936C455.49 62.88 454.69 65.472 454.05 67.712C453.666 69.12 453.346 70.912 453.09 73.088C452.898 75.264 452.738 77.504 452.61 79.808C452.546 82.048 452.546 84.064 452.61 85.856C452.674 87.584 452.77 88.704 452.898 89.216C453.282 90.496 453.282 91.456 452.898 92.096C452.514 92.736 451.97 93.152 451.266 93.344C450.562 93.6 449.858 93.76 449.154 93.824ZM433.314 82.208C434.21 81.888 435.01 81.504 435.714 81.056C436.418 80.608 437.25 80.032 438.21 79.328C440.13 77.856 441.506 76.576 442.338 75.488C443.234 74.4 443.938 73.056 444.45 71.456C444.77 70.496 444.77 69.664 444.45 68.96C444.194 68.256 443.714 67.584 443.01 66.944C442.306 66.368 441.41 66.144 440.322 66.272C439.234 66.336 437.986 67.008 436.578 68.288C435.042 69.696 433.73 71.328 432.642 73.184C431.554 75.04 430.658 77.696 429.954 81.152C429.826 81.792 430.05 82.24 430.626 82.496C431.202 82.752 432.098 82.656 433.314 82.208Z" fill="#D60F9A"/>
</g>
<defs>
<clipPath id="clip0_189_1889">
<rect width="493" height="120" fill="white"/>
</clipPath>
</defs>
</svg>
